<svg width="24" height="24" xmlns="http://www.w3.org/2000/svg">

 <g>
  <title>background</title>
  <rect fill="none" id="canvas_background" height="402" width="582" y="-1" x="-1"/>
 </g>
 <g>
  <title>Layer 1</title>
  <path fill="#ffffff" id="svg_3" d="m12,13.002c-3.584,0 -6.5,-2.916 -6.5,-6.5s2.916,-6.5 6.5,-6.5s6.5,2.916 6.5,6.5s-2.916,6.5 -6.5,6.5zm0,-12c-3.032,0 -5.5,2.467 -5.5,5.5s2.468,5.5 5.5,5.5s5.5,-2.467 5.5,-5.5s-2.468,-5.5 -5.5,-5.5z"/>
  <path fill="#ffffff" id="svg_5" d="m12,10.002c-1.93,0 -3.5,-1.57 -3.5,-3.5s1.57,-3.5 3.5,-3.5s3.5,1.57 3.5,3.5s-1.57,3.5 -3.5,3.5zm0,-6c-1.379,0 -2.5,1.122 -2.5,2.5s1.121,2.5 2.5,2.5s2.5,-1.122 2.5,-2.5s-1.121,-2.5 -2.5,-2.5z"/>
  <path fill="#ffffff" id="svg_7" d="m16.5,24.001c-0.512,0 -1.024,-0.195 -1.414,-0.585l-3.086,-3.195l-3.08,3.188c-0.785,0.787 -2.055,0.787 -2.834,0.006c-0.378,-0.377 -0.586,-0.879 -0.586,-1.413c0,-0.535 0.208,-1.037 0.586,-1.414l3.021,-2.957c-0.187,-0.047 -0.368,-0.097 -0.544,-0.151c-1.041,-0.327 -2.026,-0.797 -2.931,-1.398c-0.708,-0.471 -1.132,-1.257 -1.132,-2.102c0,-0.718 0.38,-1.336 1.016,-1.655c0.646,-0.324 1.414,-0.253 2.003,0.188c2.605,1.948 6.357,1.948 8.963,0l0,0c0.59,-0.44 1.357,-0.512 2.003,-0.188c0.636,0.318 1.016,0.937 1.016,1.655c0,0.845 -0.424,1.631 -1.133,2.102c-0.904,0.601 -1.89,1.071 -2.928,1.397c-0.177,0.055 -0.359,0.105 -0.547,0.152l3.018,2.953c0.382,0.381 0.59,0.883 0.59,1.418c0,0.534 -0.208,1.036 -0.586,1.414c-0.391,0.39 -0.903,0.585 -1.415,0.585zm-4.5,-4.999c0.136,0 0.266,0.055 0.359,0.153l3.439,3.561c0.367,0.365 1.029,0.372 1.408,-0.006c0.188,-0.189 0.293,-0.44 0.293,-0.707s-0.104,-0.518 -0.293,-0.707l-3.683,-3.603c-0.135,-0.131 -0.184,-0.327 -0.128,-0.506c0.056,-0.179 0.208,-0.312 0.393,-0.344c0.48,-0.083 0.937,-0.19 1.354,-0.318c0.944,-0.297 1.845,-0.726 2.671,-1.275c0.429,-0.285 0.686,-0.759 0.686,-1.269c0,-0.477 -0.324,-0.691 -0.464,-0.761c-0.309,-0.155 -0.666,-0.12 -0.955,0.094c-1.478,1.104 -3.234,1.688 -5.081,1.688s-3.604,-0.583 -5.081,-1.688c-0.288,-0.214 -0.646,-0.25 -0.955,-0.094c-0.139,0.069 -0.463,0.283 -0.463,0.76c0,0.509 0.257,0.983 0.686,1.269c0.826,0.549 1.727,0.978 2.674,1.276c0.415,0.127 0.871,0.234 1.352,0.317c0.185,0.032 0.337,0.165 0.393,0.344c0.056,0.18 0.007,0.375 -0.128,0.506l-3.687,3.606c-0.186,0.186 -0.29,0.437 -0.29,0.704s0.104,0.518 0.293,0.707c0.379,0.378 1.035,0.378 1.414,0l3.434,-3.554c0.093,-0.098 0.223,-0.153 0.359,-0.153z"/>
 </g>
</svg>