<svg width="32" height="32" xmlns="http://www.w3.org/2000/svg">

 <title/>
 <g>
  <title>background</title>
  <rect fill="none" id="canvas_background" height="402" width="582" y="-1" x="-1"/>
 </g>
 <g>
  <title>Layer 1</title>
  <path fill="#ffffff" id="svg_1" d="m25.6,16.41c1.38,-1.76 4.5,-6 3.8,-7.7a1.39,1.39 0 0 0 -1.33,-0.85l-3.81,0a1,1 0 0 0 -0.84,0.47a48.4,48.4 0 0 1 -3.87,5.41l0,-3.93a1.91,1.91 0 0 0 -1.95,-1.95l-4.76,0a1,1 0 0 0 -0.71,0.29a1.56,1.56 0 0 0 -0.51,1.55a2.17,2.17 0 0 0 0.63,0.94a1.32,1.32 0 0 1 0.54,1.08l0,3.58c-0.67,-0.59 -1.95,-2.23 -3.78,-6.81a1,1 0 0 0 -0.93,-0.63l-4.76,0a1,1 0 0 0 0,2l4.09,0c2,4.85 3.8,7.38 5.5,7.73a1.75,1.75 0 0 0 1.59,-0.41a1,1 0 0 0 0.29,-0.7l0,-4.76a3.16,3.16 0 0 0 -0.57,-1.86l3.33,0l0,5.66a1,1 0 0 0 0.29,0.71a1.3,1.3 0 0 0 1.08,0.37c1.16,-0.14 3.15,-2.4 5.9,-6.74l2.57,0a28.31,28.31 0 0 1 -3.83,5.91a1,1 0 0 0 0,1.41c3,2.95 3.79,4.38 4,5l-3.23,0a7.05,7.05 0 0 1 -1.28,-1.37a24.64,24.64 0 0 0 -1.89,-2.15c-0.41,-0.41 -1.49,-1.5 -2.61,-1a1.79,1.79 0 0 0 -1,1.73l0,2.61a6.93,6.93 0 0 1 -1.85,0.16c-4.75,0 -8.42,-6.58 -10.19,-10.51a1,1 0 0 0 -1.82,0.82c2,4.37 6.14,11.69 12,11.69c1.15,0 3.85,0 3.85,-1.95l0,-2.36l0.2,0.19a24.25,24.25 0 0 1 1.75,2c0.95,1.17 1.7,2.1 2.76,2.1l3.81,0a1.61,1.61 0 0 0 1.48,-1c0.4,-0.91 0.21,-2.46 -3.94,-6.73z" class="cls-1"/>
 </g>
</svg>